HIERARCHY
ROOT Model_Hips
{
	OFFSET 0.000000 96.915077 0.000000
	CHANNELS 6 Xposition Yposition Zposition Xrotation Yrotation Zrotation
	JOINT Model_Spine
	{
		OFFSET 0.000000 11.137703 -1.289900
		CHANNELS 3 Xrotation Yrotation Zrotation
		JOINT Model_Spine1
		{
			OFFSET 0.000000 12.993942 -1.504922
			CHANNELS 3 Xrotation Yrotation Zrotation
			JOINT Model_Spine2
			{
				OFFSET 0.000000 14.850220 -1.719911
				CHANNELS 3 Xrotation Yrotation Zrotation
				JOINT Model_Neck
				{
					OFFSET 0.000000 16.706543 -1.934903
					CHANNELS 3 Xrotation Yrotation Zrotation
					JOINT Model_Head
					{
						OFFSET 0.000000 10.471298 2.002100
						CHANNELS 3 Xrotation Yrotation Zrotation
						JOINT Model_HeadTop_End
						{
							OFFSET 0.000000 20.842606 3.985100
							CHANNELS 3 Xrotation Yrotation Zrotation
							End Site
							{
								OFFSET 0.000000 21.220154 0.000000
							}
						}
					}
				}
				JOINT Model_LeftShoulder
				{
					OFFSET 7.008500 14.768600 -1.919946
					CHANNELS 3 Xrotation Yrotation Zrotation
					JOINT Model_LeftArm
					{
						OFFSET 14.126271 -3.718048 0.029937
						CHANNELS 3 Xrotation Yrotation Zrotation
						JOINT Model_LeftForeArm
						{
							OFFSET 28.282801 0.000000 0.000000
							CHANNELS 3 Xrotation Yrotation Zrotation
							JOINT Model_LeftHand
							{
								OFFSET 26.204689 0.000000 0.000000
								CHANNELS 3 Xrotation Yrotation Zrotation
								End Site
								{
									OFFSET 26.204704 0.000000 0.000000
								}
							}
						}
					}
				}
				JOINT Model_RightShoulder
				{
					OFFSET -7.008500 14.768555 -1.949840
					CHANNELS 3 Xrotation Yrotation Zrotation
					JOINT Model_RightArm
					{
						OFFSET -14.126281 -3.718018 -0.029932
						CHANNELS 3 Xrotation Yrotation Zrotation
						JOINT Model_RightForeArm
						{
							OFFSET -28.283798 0.000000 -0.000001
							CHANNELS 3 Xrotation Yrotation Zrotation
							JOINT Model_RightHand
							{
								OFFSET -26.204193 0.000000 -0.000001
								CHANNELS 3 Xrotation Yrotation Zrotation
								End Site
								{
									OFFSET -26.204208 0.000000 -0.000001
								}
							}
						}
					}
				}
			}
		}
	}
	JOINT Model_LeftUpLeg
	{
		OFFSET 8.327700 -6.193199 -0.402800
		CHANNELS 3 Xrotation Yrotation Zrotation
		JOINT Model_LeftLeg
		{
			OFFSET 0.735802 -42.108742 -0.610721
			CHANNELS 3 Xrotation Yrotation Zrotation
			JOINT Model_LeftFoot
			{
				OFFSET -0.735806 -36.833748 -0.172876
				CHANNELS 3 Xrotation Yrotation Zrotation
				JOINT Model_LeftToeBase
				{
					OFFSET -0.565857 -11.977769 16.297714
					CHANNELS 3 Xrotation Yrotation Zrotation
					JOINT Model_LeftToe_End
					{
						OFFSET -0.111712 -0.312793 7.857784
						CHANNELS 3 Xrotation Yrotation Zrotation
						End Site
						{
							OFFSET -0.111712 -0.312793 7.857784
						}
					}
				}
			}
		}
	}
	JOINT Model_RightUpLeg
	{
		OFFSET -8.327700 -6.193199 -0.516500
		CHANNELS 3 Xrotation Yrotation Zrotation
		JOINT Model_RightLeg
		{
			OFFSET -0.735785 -42.108738 -0.434061
			CHANNELS 3 Xrotation Yrotation Zrotation
			JOINT Model_RightFoot
			{
				OFFSET 0.735776 -36.833748 -0.021630
				CHANNELS 3 Xrotation Yrotation Zrotation
				JOINT Model_RightToeBase
				{
					OFFSET 0.565817 -11.977745 15.903093
					CHANNELS 3 Xrotation Yrotation Zrotation
					JOINT Model_RightToe_End
					{
						OFFSET 0.111702 -0.312791 7.811342
						CHANNELS 3 Xrotation Yrotation Zrotation
						End Site
						{
							OFFSET 0.111702 -0.312791 7.811342
						}
					}
				}
			}
		}
	}
}
MOTION
Frames: 7
Frame Time: 0.016667
1.325339 119.875992 190.435959 -13.628866 5.424751 -1.389523 41.183346 9.501443 3.815942 0.677110 0.666515 2.258826 0.662811 0.829181 2.209787 5.364410 -2.228282 -1.174863 5.160642 -2.211988 -1.167536 0.000003 0.000000 0.000000 -0.540157 6.084912 3.881084 -8.384396 -3.079134 25.192859 -0.000005 -16.124719 0.000002 -0.000003 -0.000001 -0.000002 -0.267390 -3.889652 -2.306504 10.310660 -0.197111 28.071283 0.000010 20.414252 0.000009 0.000002 0.000000 0.000000 -49.289097 3.248654 1.637144 30.717403 2.469375 -1.609720 29.981614 4.051525 8.569458 -3.460715 0.000002 -0.000001 -0.000000 -0.000000 -0.000000 -43.252911 -10.787737 -13.113744 114.585064 2.822832 -0.113765 -6.178547 0.681516 -6.667531 0.365344 -0.000003 -0.000001 -0.000002 -0.000000 0.000000 
1.549055 117.995140 197.961243 -13.460220 8.364880 -2.835618 39.957006 7.501441 6.395536 0.959538 0.232355 2.820847 0.949264 0.433668 2.802245 6.012278 -2.131459 -0.840767 5.556122 -2.090774 -0.864359 0.000000 0.000000 -0.000000 -0.677060 6.073583 5.639773 -6.328224 -6.529794 27.695898 -0.000002 -13.480892 0.000023 -0.000000 0.000001 0.000001 -0.411842 -4.407050 -2.126749 13.751271 -3.499138 31.783684 0.000004 22.187627 0.000007 -0.000001 0.000000 0.000002 -45.573341 3.956931 2.239381 27.489239 0.585714 -1.695262 32.370845 3.893598 7.441421 -3.690947 0.000011 0.000001 0.000000 0.000001 -0.000000 -45.962436 -10.999727 -13.461164 112.230868 2.959280 0.524897 -8.052998 0.940863 -7.043577 -0.707114 -0.000002 0.000001 -0.000008 -0.000000 0.000000 
1.737169 116.002106 205.663376 -13.096187 10.855880 -4.127237 38.319550 5.348253 8.482131 1.464806 -0.157606 3.332610 1.463574 0.072289 3.338225 6.688388 -2.002735 -0.714700 5.891465 -1.936786 -0.777432 0.000001 -0.000000 0.000000 -0.780547 5.894397 7.403699 -5.642512 -9.566144 29.111345 -0.000009 -13.014825 -0.000006 -0.000003 -0.000003 -0.000003 -0.616448 -5.298542 -1.758452 16.529254 -6.381028 36.095101 0.000003 22.663112 0.000003 0.000001 0.000001 0.000000 -41.941555 5.025827 3.055794 24.411905 -1.081544 -1.703706 34.785433 3.869929 6.416628 -3.445788 0.000003 0.000003 -0.000000 -0.000002 0.000000 -48.395852 -10.631665 -13.616559 109.019812 3.607644 1.323996 -9.698277 1.168472 -6.940031 -2.001678 -0.000001 0.000001 -0.000003 0.000000 0.000001 
1.895683 113.846031 213.500183 -12.616450 12.934232 -5.275556 36.367810 2.936230 10.164110 2.125964 -0.517912 3.750278 2.139162 -0.272402 3.771628 7.416930 -1.825290 -0.793406 6.197630 -1.731460 -0.900351 0.000001 -0.000000 0.000000 -0.804637 5.467419 8.845619 -6.816811 -11.864231 29.544571 -0.000009 -15.820344 -0.000005 -0.000003 -0.000002 -0.000002 -0.964938 -7.163299 -1.246008 18.830273 -8.222779 40.488713 0.000004 22.343477 0.000009 -0.000003 0.000001 0.000002 -39.114513 6.340851 3.997901 23.154686 -2.442428 -1.610217 37.414496 4.032945 5.370977 -2.529123 -0.000002 -0.000001 -0.000000 0.000001 -0.000001 -50.554998 -9.917096 -13.556288 105.114938 3.938798 2.222611 -11.167246 1.364761 -6.428142 -3.192036 -0.000001 -0.000001 -0.000001 0.000000 0.000000 
2.041079 111.426666 221.503479 -12.072756 14.439320 -6.347763 34.135110 0.295326 11.478955 2.869905 -0.860802 4.054308 2.902652 -0.611133 4.081789 8.218421 -1.574885 -1.121267 6.502701 -1.444836 -1.273389 0.000001 0.000000 -0.000000 -0.718795 4.785428 9.559266 -10.496175 -13.332549 28.700981 0.000013 -22.910994 -0.000002 0.000001 0.000002 0.000001 -1.357120 -9.486236 -0.590985 20.644897 -9.630090 44.980829 0.000017 21.164478 -0.000011 -0.000002 -0.000001 -0.000003 -37.784617 7.513457 5.329480 24.678703 -3.309021 -1.495348 38.868926 4.195592 4.254144 -1.350608 -0.000003 -0.000002 -0.000002 -0.000000 -0.000000 -52.535790 -9.021211 -13.032343 100.735052 3.184635 3.118087 -12.336946 1.581893 -5.956480 -4.194115 -0.000000 -0.000002 -0.000003 0.000000 -0.000000 
2.103177 108.787315 229.403397 -11.580342 15.628362 -7.091199 31.962543 -2.703427 12.294055 3.605768 -1.204989 4.191508 3.661244 -0.962709 4.216676 9.044712 -1.274528 -1.550641 6.766510 -1.098114 -1.744719 -0.000001 0.000000 -0.000000 -0.553971 3.885517 9.709605 -15.801482 -14.321359 26.699662 -0.000010 -32.675311 0.000005 -0.000002 0.000001 -0.000002 -1.776467 -12.157977 0.124212 22.381217 -10.921574 49.244465 -0.000017 19.619882 0.000006 0.000000 -0.000000 -0.000000 -38.145643 8.341298 6.610663 28.912891 -3.688632 -1.288591 38.685519 4.274165 2.993586 -0.058086 -0.000005 -0.000004 0.000001 0.000001 -0.000000 -54.524307 -7.943737 -12.368229 95.947274 1.312793 3.963515 -12.880914 1.802919 -5.499431 -5.231784 0.000000 -0.000003 0.000000 -0.000000 0.000000 
2.096837 105.830055 237.203796 -11.271531 16.579103 -7.525751 30.097956 -5.968530 12.660737 4.175899 -1.575158 4.158356 4.255619 -1.345127 4.177616 9.868104 -0.926106 -1.965573 6.969528 -0.696016 -2.194586 -0.000002 0.000000 0.000000 -0.350106 2.827860 9.550052 -22.393923 -15.154469 22.923406 0.000011 -43.866074 0.000037 0.000000 0.000000 -0.000000 -2.234587 -15.064576 0.700543 24.924323 -12.543788 53.533250 0.000024 19.053540 -0.000025 0.000002 0.000001 0.000002 -37.365243 8.820472 7.374894 32.006365 -3.957678 -0.748151 38.650664 3.981566 0.807003 0.813733 0.000005 -0.000008 0.000001 0.000001 0.000001 -56.513535 -6.847642 -11.729453 90.974302 -1.811009 4.781307 -12.754540 2.066260 -5.351747 -6.516308 0.000001 0.000003 0.000000 -0.000000 -0.000001 
